HIERARCHY
ROOT hip
{
	OFFSET 0.00000 0.00000 0.00000
	CHANNELS 6 Xposition Yposition Zposition Zrotation Yrotation Xrotation 
	JOINT lhipjoint
	{
		OFFSET 0 0 0
		CHANNELS 3 Zrotation Yrotation Xrotation
		JOINT lfemur
		{
			OFFSET 1.38280 -1.96574 0.54427
			CHANNELS 3 Zrotation Yrotation Xrotation
			JOINT ltibia
			{
				OFFSET 2.72096 -7.47578 0.00000
				CHANNELS 3 Zrotation Yrotation Xrotation
				JOINT lfoot
				{
					OFFSET 2.73041 -7.50176 0.00000
					CHANNELS 3 Zrotation Yrotation Xrotation
					JOINT ltoes
					{
						OFFSET 0.16150 -0.44371 2.18031
						CHANNELS 3 Zrotation Yrotation Xrotation
						End Site
						{
							OFFSET 0.00000 -0.00000 1.12127
						}
					}
				}
			}
		}
	}
	JOINT rhipjoint
	{
		OFFSET 0 0 0
		CHANNELS 3 Zrotation Yrotation Xrotation
		JOINT rfemur
		{
			OFFSET -1.57224 -1.96575 0.54427
			CHANNELS 3 Zrotation Yrotation Xrotation
			JOINT rtibia
			{
				OFFSET -2.95935 -8.13076 0.00000
				CHANNELS 3 Zrotation Yrotation Xrotation
				JOINT rfoot
				{
					OFFSET -2.52345 -6.93311 0.00000
					CHANNELS 3 Zrotation Yrotation Xrotation
					JOINT rtoes
					{
						OFFSET -0.04475 -0.10171 1.86688
						CHANNELS 3 Zrotation Yrotation Xrotation
						End Site
						{
							OFFSET -0.00000 -0.00000 0.95157
						}
					}
				}
			}
		}
	}
	JOINT lowerback
	{
		OFFSET 0 0 0
		CHANNELS 3 Zrotation Yrotation Xrotation
		JOINT upperback
		{
			OFFSET 0.00669 2.07367 0.09104
			CHANNELS 3 Zrotation Yrotation Xrotation
			JOINT thorax
			{
				OFFSET -0.00664 2.06198 -0.04732
				CHANNELS 3 Zrotation Yrotation Xrotation
				JOINT lowerneck
				{
					OFFSET 0 0 0
					CHANNELS 3 Zrotation Yrotation Xrotation
					JOINT upperneck
					{
						OFFSET -0.00021 1.49948 0.16345
						CHANNELS 3 Zrotation Yrotation Xrotation
						JOINT head
						{
							OFFSET 0.06080 1.50567 -0.26702
							CHANNELS 3 Zrotation Yrotation Xrotation
							End Site
							{
								OFFSET 0.01726 1.56470 -0.11854
							}
						}
					}
				}
				JOINT lclavicle
				{
					OFFSET 0 0 0
					CHANNELS 3 Zrotation Yrotation Xrotation
					JOINT lhumerus
					{
						OFFSET 3.14993 0.82932 -0.22488
						CHANNELS 3 Zrotation Yrotation Xrotation
						JOINT lradius
						{
							OFFSET 5.68236 -0.00000 -0.00000
							CHANNELS 3 Zrotation Yrotation Xrotation
							JOINT lwrist
							{
								OFFSET 3.17112 -0.00000 0.00000
								CHANNELS 3 Zrotation Yrotation Xrotation
								JOINT lhand
								{
									OFFSET 0 0 0
									CHANNELS 3 Zrotation Yrotation Xrotation
									JOINT lfingers
									{
										OFFSET 0.63269 -0.00000 0.00000
										CHANNELS 3 Zrotation Yrotation Xrotation
										End Site
										{
											OFFSET 0.51009 -0.00000 0.00000
										}
									}
								}
								JOINT lthumb
								{
									OFFSET 0 0 0
									CHANNELS 3 Zrotation Yrotation Xrotation
									End Site
									{
										OFFSET 0.51788 -0.00000 0.51788
									}
								}
							}
						}
					}
				}
				JOINT rclavicle
				{
					OFFSET 0 0 0
					CHANNELS 3 Zrotation Yrotation Xrotation
					JOINT rhumerus
					{
						OFFSET -3.10571 0.91279 -0.33334
						CHANNELS 3 Zrotation Yrotation Xrotation
						JOINT rradius
						{
							OFFSET -5.87120 -0.00000 -0.00000
							CHANNELS 3 Zrotation Yrotation Xrotation
							JOINT rwrist
							{
								OFFSET -3.37589 -0.00000 0.00000
								CHANNELS 3 Zrotation Yrotation Xrotation
								JOINT rhand
								{
									OFFSET 0 0 0
									CHANNELS 3 Zrotation Yrotation Xrotation
									JOINT rfingers
									{
										OFFSET -0.60326 -0.00000 0.00000
										CHANNELS 3 Zrotation Yrotation Xrotation
										End Site
										{
											OFFSET -0.48636 -0.00000 0.00000
										}
									}
								}
								JOINT rthumb
								{
									OFFSET 0 0 0
									CHANNELS 3 Zrotation Yrotation Xrotation
									End Site
									{
										OFFSET -0.49379 -0.00000 0.49379
									}
								}
							}
						}
					}
				}
			}
		}
	}
}
MOTION
Frames: 11
Frame Time: 0.033333
0.2857 17.8741 -5.3281 179.0360 -78.0954 -165.9620 0.0000 0.0000 0.0000 -21.8735 -10.0415 -39.1595 4.4451 12.7303 38.3669 0.9788 3.7316 -20.3897 0.2450 -3.1851 -8.7946 0.0000 0.0000 0.0000 18.3914 5.1388 -8.3034 -6.9731 -15.3092 48.7725 -0.1757 -10.5038 9.8856 -6.1107 -14.5347 45.4243 -4.5528 0.4052 -10.4669 -1.1215 1.1580 0.6265 1.5668 0.4199 6.4786 1.0174 3.5418 -21.0056 -2.3860 5.0583 18.3030 -0.2868 2.1296 9.3164 -0.0000 -0.0000 0.0000 -81.4621 0.8377 27.6335 18.8380 -29.2169 -4.9515 -0.0000 0.0000 -16.4308 15.9529 34.1216 9.1099 -7.1250 0.0000 -0.0000 -21.1448 63.9483 -9.9278 -0.0000 -0.0000 0.0000 83.2168 -3.8223 10.6805 -16.4184 26.0847 -3.8281 0.0000 0.0000 18.4332 -15.5601 29.3207 -7.7649 7.1250 -0.0000 -0.0000 8.8637 -0.0540 8.9633
0.1977 17.8775 -5.3214 179.1200 -77.7998 -166.0650 0.0000 0.0000 0.0000 -21.9814 -9.9375 -38.8994 4.4784 12.7711 38.5177 1.0225 3.7535 -20.8037 0.2739 -3.3663 -9.3003 0.0000 0.0000 0.0000 18.0730 5.3720 -9.2921 -7.4540 -15.7025 50.5711 -0.1507 -10.7832 9.7037 -6.0255 -14.4530 45.0838 -4.6056 0.3986 -10.4970 -1.0776 1.1564 0.6521 1.6431 0.4155 6.5211 1.0132 3.6207 -21.0338 -2.4698 5.1849 18.1947 -0.2974 2.1802 9.2885 0.0000 0.0000 0.0000 -81.4667 0.2889 27.3546 18.8325 -29.2100 -4.9488 -0.0000 0.0000 -16.5613 16.2133 34.1388 9.2681 -7.1250 0.0000 -0.0000 -20.8714 64.0340 -9.8355 0.0000 0.0000 0.0000 83.1711 -3.7046 10.6198 -16.3025 25.9291 -3.7773 0.0000 0.0000 18.8484 -15.2132 29.3809 -7.5994 7.1250 -0.0000 -0.0000 9.0709 -0.0493 9.1789
0.1116 17.8804 -5.3144 179.0630 -77.5188 -166.0370 0.0000 0.0000 0.0000 -22.1208 -9.8514 -38.6205 4.5086 12.8081 38.6542 1.0686 3.7726 -21.2290 0.3064 -3.5588 -9.8385 0.0000 0.0000 0.0000 17.7319 5.6096 -10.3054 -7.9424 -16.0767 52.3550 -0.1281 -10.7296 9.3739 -5.9308 -14.3609 44.7033 -4.6937 0.3724 -10.5142 -1.0279 1.1319 0.6757 1.7415 0.3986 6.5551 1.0067 3.7075 -21.0191 -2.5563 5.3228 18.0646 -0.3077 2.2364 9.2457 -0.0000 -0.0000 0.0000 -81.4684 -0.2370 27.1172 18.8292 -29.2059 -4.9472 -0.0000 0.0000 -16.7201 16.4372 34.1029 9.3924 -7.1250 0.0000 -0.0000 -20.5857 64.0611 -9.7081 -0.0000 -0.0000 0.0000 83.0989 -3.5904 10.6588 -16.2240 25.8234 -3.7430 0.0000 0.0000 19.1179 -14.8860 29.3602 -7.4255 7.1250 -0.0000 -0.0000 9.2592 -0.1217 9.3626
0.0276 17.8833 -5.3073 178.9520 -77.2625 -165.9590 0.0000 0.0000 0.0000 -22.2740 -9.7706 -38.3301 4.5346 12.8398 38.7715 1.1166 3.7674 -21.6490 0.3391 -3.7420 -10.3519 0.0000 0.0000 0.0000 17.3929 5.8582 -11.3413 -8.4321 -16.4280 54.1045 -0.1066 -10.3896 8.8863 -5.8609 -14.2922 44.4209 -4.8067 0.3247 -10.5082 -0.9712 1.0798 0.6910 1.8565 0.3678 6.5685 1.0437 3.8151 -20.9767 -2.6663 5.4808 17.9370 -0.3309 2.3025 9.2015 0.0000 -0.0000 0.0000 -81.4565 -0.7492 26.9105 18.8169 -29.1905 -4.9412 -0.0000 0.0000 -16.8718 16.6252 34.0331 9.4872 -7.1250 0.0000 -0.0000 -20.3072 64.0473 -9.5649 0.0000 -0.0000 0.0000 83.0205 -3.4791 10.7622 -16.1812 25.7657 -3.7244 0.0000 0.0000 19.2839 -14.5988 29.2747 -7.2583 7.1250 -0.0000 -0.0000 9.4190 -0.2518 9.5070
-0.0545 17.8865 -5.3003 178.8500 -77.0334 -165.8950 0.0000 0.0000 0.0000 -22.4281 -9.6793 -38.0361 4.5564 12.8662 38.8695 1.1663 3.7159 -22.0508 0.3644 -3.8776 -10.7325 0.0000 0.0000 0.0000 17.0706 6.1152 -12.3962 -8.9153 -16.7529 55.7969 -0.0854 -9.8606 8.2749 -5.8303 -14.2618 44.2967 -4.9314 0.2605 -10.4763 -0.9047 1.0046 0.7003 1.9844 0.3257 6.5624 1.1283 3.9399 -20.9253 -2.8075 5.6546 17.8266 -0.3702 2.3756 9.1648 -0.0000 0.0000 0.0000 -81.4296 -1.2581 26.7487 18.7986 -29.1676 -4.9323 -0.0000 0.0000 -17.0112 16.8051 33.9781 9.5806 -7.1250 0.0000 -0.0000 -20.0520 64.0447 -9.4386 -0.0000 0.0000 0.0000 82.9449 -3.3655 10.8894 -16.1700 25.7506 -3.7195 0.0000 0.0000 19.3687 -14.3869 29.1513 -7.1223 7.1250 -0.0000 -0.0000 9.5320 -0.4073 9.5981
-0.1348 17.8895 -5.2933 178.7790 -76.8311 -165.8710 0.0000 0.0000 0.0000 -22.5790 -9.5661 -37.7392 4.5749 12.8885 38.9525 1.2182 3.5953 -22.4262 0.3732 -3.9238 -10.8623 0.0000 0.0000 0.0000 16.7674 6.3697 -13.4568 -9.3838 -17.0484 57.4081 -0.0653 -9.2322 7.5920 -5.8302 -14.2618 44.2965 -5.0587 0.1841 -10.4188 -0.8252 0.9112 0.7097 2.1245 0.2748 6.5436 1.2323 4.0694 -20.8666 -2.9679 5.8334 17.7312 -0.4185 2.4500 9.1340 0.0000 0.0000 0.0000 -81.3925 -1.7674 26.6591 18.7829 -29.1481 -4.9247 -0.0000 0.0000 -17.1579 17.0158 33.9752 9.7049 -7.1250 0.0000 -0.0000 -19.8122 64.0989 -9.3464 0.0000 0.0000 0.0000 82.8671 -3.2464 11.0198 -16.1853 25.7713 -3.7262 0.0000 0.0000 19.3826 -14.2783 29.0390 -7.0422 7.1250 -0.0000 -0.0000 9.5861 -0.5358 9.6322
-0.2141 17.8917 -5.2860 178.7690 -76.6544 -165.9300 0.0000 0.0000 0.0000 -22.7222 -9.4259 -37.4322 4.5916 12.9086 39.0271 1.2706 3.4164 -22.7701 0.3669 -3.8906 -10.7692 0.0000 0.0000 0.0000 16.4890 6.6115 -14.4997 -9.8292 -17.3127 58.9159 -0.0479 -8.5414 6.8815 -5.8450 -14.2764 44.3564 -5.1640 0.1014 -10.3351 -0.7367 0.8048 0.7246 2.2595 0.2184 6.5174 1.3276 4.1928 -20.8042 -3.1171 6.0042 17.6567 -0.4625 2.5210 9.1093 0.0000 -0.0000 0.0000 -81.3383 -2.2687 26.6592 18.7817 -29.1465 -4.9241 -0.0000 0.0000 -17.3165 17.2516 34.0517 9.8642 -7.1250 0.0000 -0.0000 -19.6200 64.2337 -9.3138 0.0000 -0.0000 0.0000 82.7916 -3.1304 11.1585 -16.2313 25.8333 -3.7462 0.0000 0.0000 19.3227 -14.2514 28.9551 -7.0102 7.1250 -0.0000 -0.0000 9.5951 -0.6234 9.6266
-0.2930 17.8927 -5.2779 178.8390 -76.5030 -166.0940 0.0000 0.0000 0.0000 -22.8552 -9.2630 -37.1091 4.6077 12.9279 39.0992 1.3208 3.2232 -23.0830 0.3578 -3.8430 -10.6354 0.0000 0.0000 0.0000 16.2399 6.8378 -15.5091 -10.2456 -17.5456 60.3060 -0.0347 -7.7910 6.1742 -5.8629 -14.2942 44.4291 -5.2231 0.0193 -10.2287 -0.6487 0.6923 0.7434 2.3670 0.1607 6.4842 1.4004 4.3044 -20.7307 -3.2228 6.1571 17.6096 -0.4907 2.5867 9.0900 0.0000 -0.0000 0.0000 -81.2572 -2.7533 26.7402 18.7938 -29.1616 -4.9300 -0.0000 0.0000 -17.4573 17.4546 34.2061 10.0242 -7.1250 0.0000 -0.0000 -19.5402 64.4324 -9.3647 0.0000 -0.0000 0.0000 82.7311 -3.0401 11.3280 -16.3187 25.9509 -3.7844 0.0000 0.0000 19.1683 -14.2496 28.8484 -6.9859 7.1250 -0.0000 -0.0000 9.5876 -0.7299 9.6006
-0.3717 17.8926 -5.2688 178.9890 -76.3826 -166.3560 0.0000 0.0000 0.0000 -22.9740 -9.0988 -36.7699 4.6244 12.9479 39.1736 1.3673 3.0502 -23.3728 0.3565 -3.8359 -10.6154 0.0000 0.0000 0.0000 16.0224 7.0512 -16.4880 -10.6301 -17.7493 61.5743 -0.0262 -6.9897 5.5003 -5.8835 -14.3145 44.5123 -5.2276 -0.0578 -10.1088 -0.5672 0.5792 0.7612 2.4371 0.1051 6.4431 1.4467 4.4012 -20.6282 -3.2670 6.2848 17.5814 -0.4975 2.6460 9.0684 -0.0000 -0.0000 0.0000 -81.1442 -3.2267 26.8899 18.8026 -29.1726 -4.9342 -0.0000 0.0000 -17.5473 17.5703 34.3833 10.1384 -7.1250 0.0000 -0.0000 -19.5825 64.6287 -9.4749 -0.0000 -0.0000 0.0000 82.7005 -2.9910 11.5178 -16.4517 26.1293 -3.8428 0.0000 0.0000 18.9173 -14.2527 28.6570 -6.9454 7.1250 -0.0000 -0.0000 9.5707 -0.9201 9.5506
-0.4501 17.8920 -5.2589 179.2110 -76.3065 -166.7000 0.0000 0.0000 0.0000 -23.0707 -8.9678 -36.4118 4.6421 12.9691 39.2528 1.4120 2.9017 -23.6561 0.3633 -3.8717 -10.7159 0.0000 0.0000 0.0000 15.8375 7.2445 -17.4499 -10.9822 -17.9264 62.7237 -0.0221 -6.1542 4.8872 -5.9116 -14.3422 44.6260 -5.1805 -0.1288 -9.9861 -0.4921 0.4685 0.7808 2.4719 0.0525 6.4027 1.4691 4.4800 -20.5028 -3.2577 6.3836 17.5609 -0.4868 2.6966 9.0421 -0.0000 0.0000 0.0000 -80.9986 -3.7050 27.1215 18.8019 -29.1718 -4.9339 -0.0000 0.0000 -17.5909 17.5927 34.5188 10.1863 -7.1250 0.0000 -0.0000 -19.6916 64.7606 -9.5898 -0.0000 0.0000 0.0000 82.7073 -2.9680 11.6857 -16.6268 26.3632 -3.9202 0.0000 0.0000 18.5933 -14.3019 28.3837 -6.9099 7.1250 -0.0000 -0.0000 9.5205 -1.1852 9.4538
-0.5283 17.8914 -5.2485 179.4920 -76.2868 -167.1060 0.0000 0.0000 0.0000 -23.1405 -8.8982 -36.0283 4.6609 12.9915 39.3365 1.4585 2.7583 -23.9522 0.3709 -3.9120 -10.8291 0.0000 0.0000 0.0000 15.6850 7.4062 -18.4056 -11.3016 -18.0795 63.7572 -0.0212 -5.2880 4.3409 -5.9450 -14.3748 44.7606 -5.0994 -0.2010 -9.8721 -0.4128 0.3532 0.8126 2.4917 -0.0020 6.3810 1.4732 4.5411 -20.3763 -3.2318 6.4600 17.5402 -0.4707 2.7375 9.0136 0.0000 0.0000 0.0000 -80.8334 -4.2003 27.4489 18.8041 -29.1746 -4.9350 -0.0000 0.0000 -17.6206 17.5617 34.5881 10.1850 -7.1250 0.0000 -0.0000 -19.7963 64.8163 -9.6682 0.0000 0.0000 0.0000 82.7322 -2.9382 11.8259 -16.8386 26.6445 -4.0147 0.0000 0.0000 18.2136 -14.4324 28.0803 -6.9072 7.1250 -0.0000 -0.0000 9.4204 -1.4684 9.3035
